<?xml version="1.0" encoding="UTF-8"?>
<svg id="County_Labels" data-name="County Labels" xmlns="http://www.w3.org/2000/svg" viewBox="0 0 1000 1000">
  <polygon points="181.82 968.94 128.87 922.47 119.05 871.15 132.96 859.9 246.53 872.26 305.07 850.71 326.53 823.7 321.71 781.6 267.29 741.33 264.91 703.86 279.36 680.1 242.92 670.72 230.64 613.89 253.06 593.86 279.03 591.74 279.96 634.74 296.35 664.1 337.93 692.95 358.32 688.61 380.24 643.59 369.4 615.66 318.55 559.62 320.63 435.15 325.81 419.38 382.36 405.68 442.45 371.58 470.85 331.07 454.49 303.2 334.35 300.17 317.12 269.98 318.68 232.33 333.44 220.27 392.79 261.36 464.75 263.82 492.98 213.89 494.8 107.25 528.41 46.99 520.44 44.01 565.39 35.29 601.88 80.87 630.56 174.42 672.02 192.46 671.74 219.89 741.8 247.61 837.51 252.19 838.02 281.17 833.32 731.96 740.55 697.64 610.43 689.88 578.31 699.09 543.66 739.62 496.86 761.63 462.24 763.1 417.91 789.78 384.82 788.11 366.12 835.37 346.6 842.8 364.08 887.75 338.39 937.47 300.84 946.85 268.72 916.3 249.85 916.7 181.82 968.94" fill="#fde9bf" fill-rule="evenodd" stroke="#fff" stroke-miterlimit="10" stroke-width="12.79"/>
</svg>