<?xml version="1.0" encoding="UTF-8"?>
<svg id="County_Labels" data-name="County Labels" xmlns="http://www.w3.org/2000/svg" viewBox="0 0 1000 1000">
  <polygon points="706.51 942 159.53 941.01 147.92 939.87 130.4 914.64 131.52 864.17 179.71 887.54 204.21 883.75 225.72 826.19 221.07 795.32 158.04 746.62 145.86 715.85 150.15 688.85 210.05 675 262.36 735.39 308.52 757.5 365.4 726.97 364.17 693.99 342.64 673.46 282.77 689.93 252.59 683.7 241.38 667.73 235.32 595.74 242.63 583.48 281.72 588.89 330.04 573.94 358.5 599.09 389.42 607.36 417.97 596.13 432 575.69 424.16 555.6 376.52 529.38 344.37 489.43 336.25 454.48 389.38 351.75 318.5 294.81 302.23 265.36 325.95 248.08 373.78 278.39 400.42 271.22 411.93 304.13 428.56 315.35 455.83 305.48 460.37 288.53 442.86 265.15 445.22 240.8 473.56 210.64 552.96 196.63 577.74 107.05 528.24 104.38 483.75 69.87 836.29 73.9 836.68 272.61 833.94 823.39 708.33 823.62 706.51 942" fill="#fde9bf" fill-rule="evenodd" stroke="#fff" stroke-miterlimit="10" stroke-width="12.79"/>
</svg>