<?xml version="1.0" encoding="UTF-8"?>
<svg id="County_Labels" data-name="County Labels" xmlns="http://www.w3.org/2000/svg" viewBox="0 0 1000 1000">
  <polygon points="840.58 896.03 658.55 895.12 671.09 820.75 398.57 755.67 38.88 733.95 106.67 667.77 167.28 530.8 254.15 524.25 310.38 470.12 309.19 449.86 287.48 428.25 198.88 386.66 194.82 350.39 226.34 345.62 283.67 403.82 322.01 400.65 368.02 395.68 424.23 335.64 487.1 315.23 502.9 342.03 561.72 336.93 559.27 287.1 576.83 262.32 605.27 279.66 617 264.28 642.85 279.97 679.19 252.4 658.46 235.79 680.31 210.95 705.17 216.53 712.27 235.04 786.31 214.59 802.3 195.77 775.58 179.21 773.66 164.01 825.38 132.03 858.94 84.22 867.44 408.8 878.52 473.69 867.12 778.51 838.86 830.31 840.58 896.03" fill="#fde9bf" fill-rule="evenodd" stroke="#fff" stroke-miterlimit="10" stroke-width="12.79"/>
</svg>