<?xml version="1.0" encoding="UTF-8"?>
<svg id="County_Labels" data-name="County Labels" xmlns="http://www.w3.org/2000/svg" viewBox="0 0 1000 1000">
  <polygon points="483.51 940.81 483.08 726.61 103.06 722.26 88.24 674.36 120.84 626.45 230.7 687.6 254.39 685.82 282.89 657.72 262.31 618.6 130.76 595.66 114.45 547.73 121.49 522.8 208.27 572.65 251.05 555.99 261.09 479.19 284.34 443.82 302.88 442.84 348.63 476.56 362.63 414.28 343.81 339.99 352.55 326.72 443.08 317.54 451.55 340.82 440.55 410.38 453.95 413.87 482.68 394.53 483.44 336.78 554.79 274.53 587.71 228.81 594.01 195.09 573.12 126.53 586.07 88.31 605.64 68.51 832.45 239.48 829.71 495.28 761.44 495.94 760.8 797.2 761.58 946.51 483.51 940.81" fill="#fde9bf" fill-rule="evenodd" stroke="#fff" stroke-miterlimit="10" stroke-width="12.79"/>
</svg>