<?xml version="1.0" encoding="UTF-8"?>
<svg id="County_Labels" data-name="County Labels" xmlns="http://www.w3.org/2000/svg" viewBox="0 0 1000 1000">
  <polygon points="767.71 766.06 749.1 789.66 717.85 797.5 599.52 794.38 598.35 817.16 551.73 816.9 549.43 794.85 133.27 794.68 131.52 661.51 130.12 607.67 153.26 565.24 162.6 315.56 153.53 262.4 786.76 259.44 775.16 294.81 782.26 307.9 801.13 311.22 792.98 340.33 840.23 401.53 839.01 425.05 871.2 436.57 875.01 483.55 914.31 518.52 920.21 566.84 893.79 575.31 912.75 597.28 896.28 635.37 905.46 652.57 943.81 657.84 947.4 673.69 923.99 715.26 831.67 756.61 767.71 766.06" fill="#fde9bf" fill-rule="evenodd" stroke="#fff" stroke-miterlimit="10" stroke-width="12.79"/>
</svg>