<?xml version="1.0" encoding="UTF-8"?>
<svg id="County_Labels" data-name="County Labels" xmlns="http://www.w3.org/2000/svg" viewBox="0 0 1000 1000">
  <path d="M687.31,899.63l-3.03,6.55,41.29-5.67,23.14-6.77-20.11.14-41.28,5.75ZM535.9,821.8l-18.97,30.43-37.74,10.26-81.18-3.05v12.23l49.94-1.67,20.87,6.7,14.04,19.44,10.56-13.47,11.69,13.47-7.59,7.64-8.28,10.48-6.38,5.1,5.69,6.7,4.3,3.34,4.75,1.9,7.52,1.45,25.55-53.71,5.25-19.58-1.14-18.28,3.99-4.95,8.53-5.25-.75-9.17h-10.62ZM834.85,63.55l-557.4-5.09.69,55.05-160.17,4.57-1.96,484.12,95.58,14.41-4.02,103.07,606.57-149.49-69.14-33.18,87.69-24.16,2.16-449.29Z" fill="#fde9bf" stroke="#fff" stroke-miterlimit="10" stroke-width="12.79"/>
</svg>