<?xml version="1.0" encoding="UTF-8"?>
<svg id="County_Labels" data-name="County Labels" xmlns="http://www.w3.org/2000/svg" viewBox="0 0 1000 1000">
  <polygon points="778.56 885.27 147.8 888.23 140.87 623.4 164.11 585.81 152.68 565.24 155.18 542.41 181.23 504.08 175.46 435.74 194.91 425.82 260.03 436.1 267.64 429.1 258.85 396.01 316.99 285.37 301.08 241.26 326.56 204.98 359.95 184.54 403.46 193.76 409.55 173.62 438.88 166.39 504.83 106.86 504.55 219.73 769.89 220.87 769.47 346.79 985.62 355 987.79 366.74 963.4 380.03 931.6 436.22 887.85 475.22 874.11 509.17 842.75 519.05 836.72 552.95 821.48 571.01 845.16 658.53 811.87 683.62 770.81 696.35 759.26 733.01 768.37 739.14 766.74 797.79 783.59 815.59 778.56 885.27" fill="#fde9bf" fill-rule="evenodd" stroke="#fff" stroke-miterlimit="10" stroke-width="12.79"/>
</svg>