<?xml version="1.0" encoding="UTF-8"?>
<svg id="County_Labels" data-name="County Labels" xmlns="http://www.w3.org/2000/svg" viewBox="0 0 1000 1000">
  <polygon points="900.78 369.27 902.76 386.49 880.19 401.85 871.86 427.38 855.74 440.18 851.39 493.09 823.67 510.39 814.23 580.49 797.49 592.01 796.93 615.58 745.63 689.61 724.69 768.59 708.71 796.64 645.82 843.34 269.87 688.66 196 646.01 169 654.52 166.01 611.26 108.42 593.33 100.19 543.72 110.87 514.31 120.04 526.33 138.09 524.88 172.5 544.96 158.71 520.24 167.55 499.13 186.55 529.54 203.36 531.31 197.85 493.12 223.59 482.71 221.47 240.96 264.12 232.3 269.57 187.56 231.13 161.05 229.71 146.37 401.76 199.33 900.78 369.27" fill="#fde9bf" fill-rule="evenodd" stroke="#fff" stroke-miterlimit="10" stroke-width="12.79"/>
</svg>