<?xml version="1.0" encoding="UTF-8"?>
<svg id="County_Labels" data-name="County Labels" xmlns="http://www.w3.org/2000/svg" viewBox="0 0 1000 1000">
  <polygon points="774.98 722.89 641.02 726.07 643.02 924.36 277.48 928.33 268.9 546.04 219.34 546.64 227.77 521.6 213.87 497.78 227.26 480.34 207.61 464.28 231.22 331.52 131.87 251.13 136.82 181.89 449.5 182.03 452.03 59.94 629.43 59.06 627.81 188.82 699.51 249.61 782.23 244.05 776.65 167.24 803.83 157.39 798.72 130.52 817.03 109.22 843.41 115.71 853.98 100.24 857.18 464.21 818.42 479.89 826.72 537.38 801.42 534.73 772.81 488.94 759.49 520.72 780.25 557.94 728.45 527.71 701.27 529.89 687.47 511.8 671.4 556.08 683.78 630.76 770.49 657.76 774.98 722.89" fill="#fde9bf" fill-rule="evenodd" stroke="#fff" stroke-miterlimit="10" stroke-width="12.79"/>
</svg>