<?xml version="1.0" encoding="UTF-8"?>
<svg id="County_Labels" data-name="County Labels" xmlns="http://www.w3.org/2000/svg" viewBox="0 0 1000 1000">
  <polygon points="803.71 654.22 785.12 709.79 628.14 709.99 626.95 894.94 542.03 886.01 510.94 910.61 509.77 711.09 419.66 708.67 459.47 662.88 462.45 648.2 448.56 624.88 425.4 626.51 401.56 664.44 382.43 675.56 326.65 687.93 284.95 621.84 292.88 596.24 388.09 511.9 342.36 475.71 296.53 473.29 273.03 457.13 289.81 347.23 363.85 296.89 368.5 189.63 348.31 142.09 325.68 142.47 301.39 159.47 304.25 212.4 295.69 239.98 257.24 257.87 223.41 245.06 210.59 214.67 266.5 124.32 266.19 106.44 267.91 94.27 559.76 98.55 561.89 196.83 526.21 272.02 534.93 293.57 522.85 305.87 526.89 316.01 507.57 320.13 500.22 345.11 501.38 585.24 570.97 587.39 571.48 577.19 614.65 578.48 613.48 587.41 793.23 590.72 804.57 621.12 826.54 627.85 803.71 654.22" fill="#fde9bf" fill-rule="evenodd" stroke="#fff" stroke-miterlimit="10" stroke-width="12.79"/>
</svg>