<?xml version="1.0" encoding="UTF-8"?>
<svg id="County_Labels" data-name="County Labels" xmlns="http://www.w3.org/2000/svg" viewBox="0 0 1000 1000">
  <polygon points="294.72 800.04 295.81 56.13 628.51 61.12 641.42 51.79 665.66 109.9 616.11 138.67 557.64 131.29 521.68 142.95 499.43 155.21 487.57 202.9 505.13 233.28 535.45 240.14 552.66 230.06 565.25 183.09 576.03 177.33 598.49 193.49 710.19 190.58 709.27 266.57 727.28 267.15 756.98 293.95 745.73 334.47 750.98 367.78 763.25 373.37 760.36 597.39 710.8 599.12 709.09 664.28 664.57 664.58 659.68 784.23 469.08 725.56 470.66 741.82 513.24 771.19 507.21 820.75 459.96 830.34 452.17 841.73 432.77 836.95 419.29 852.62 423.05 872.39 403.05 879.64 407.16 936.16 346.29 940.25 293.54 895.52 294.72 800.04" fill="#fde9bf" fill-rule="evenodd" stroke="#fff" stroke-miterlimit="10" stroke-width="12.79"/>
</svg>