<?xml version="1.0" encoding="UTF-8"?>
<svg id="County_Labels" data-name="County Labels" xmlns="http://www.w3.org/2000/svg" viewBox="0 0 1000 1000">
  <polygon points="123.38 593 128.99 568.63 168.91 578.67 200.89 552.9 255.2 533.32 296.92 479.1 390.05 467.96 444.92 432.82 456.71 441.43 473.58 420.46 505.19 410.99 554.81 369.54 587.1 264.96 611.69 247.43 623.87 216.03 639.08 202.6 637.85 191 890.63 190.09 893.15 503.79 878.53 513.09 876.24 535.1 861.59 536.29 860.46 551.93 832.39 563.59 801.95 569.47 775.56 559.14 751.71 603.22 723.05 609.11 685.21 657.3 617.45 683.07 563.97 740.6 541.24 753.44 541.35 771.36 525.15 800.35 344.53 793.49 344.88 688.27 123.15 687.31 123.38 593" fill="#fde9bf" fill-rule="evenodd" stroke="#fff" stroke-miterlimit="10" stroke-width="12.79"/>
</svg>