<?xml version="1.0" encoding="UTF-8"?>
<svg id="County_Labels" data-name="County Labels" xmlns="http://www.w3.org/2000/svg" viewBox="0 0 1000 1000">
  <polygon points="861.14 663.56 571.32 656.53 569.13 871.21 492.98 873.54 490.73 900.08 419.92 903.2 416.23 973.69 359.16 974.55 343.15 965.49 341.6 948.82 316.47 943.56 308.04 919.33 289 916.35 256.18 886.86 230.89 827.78 204.97 823.31 162.68 706.62 183.89 664.81 164.06 661.84 149.45 629.25 126.59 636.93 141.03 620.93 131.85 614.89 132.48 579.96 147.73 574.59 128.6 560.23 140.71 532.09 158.25 525.96 155.13 510.02 172.67 500.84 156.39 431.76 176.14 395.21 196.77 393.63 197.45 366.27 228.01 363.89 213.33 312.24 240.86 311.4 244.51 247.51 268.21 243.65 269.71 231.47 252.06 213.27 277.29 204.83 265.71 165.3 278.66 139.39 306.94 122.59 296.95 107.38 301.48 79.21 288.43 69.34 403.34 66.83 548.12 66.68 549.64 40.03 620.13 40.77 620.9 62.09 669.92 65.14 669.9 96.35 713.56 100.18 735.04 51.47 843.83 55.42 848.4 68.37 862.96 67.63 865.75 220.58 861.14 663.56" fill="#fde9bf" fill-rule="evenodd" stroke="#fff" stroke-miterlimit="10" stroke-width="12.79"/>
</svg>