<?xml version="1.0" encoding="UTF-8"?>
<svg id="County_Labels" data-name="County Labels" xmlns="http://www.w3.org/2000/svg" viewBox="0 0 1000 1000">
  <polygon points="120.02 948.84 125.65 870.84 106.79 850.91 108.61 785.26 98.42 778.39 111.35 737.36 157.31 723.11 194.58 695.02 168.07 597.06 185.12 576.83 191.88 538.89 226.98 527.83 242.36 489.82 291.34 446.17 326.93 383.27 354.23 368.39 351.81 355.25 373.5 316.41 373.35 292.41 403.8 275.21 475.45 198.14 566.21 163.62 616.9 99.07 655.3 91.17 687.24 32.12 722.6 45.96 763.37 38.08 845.17 442.99 844.9 660.27 846.36 942.9 120.02 948.84" fill="#fde9bf" fill-rule="evenodd" stroke="#fff" stroke-miterlimit="10" stroke-width="12.79"/>
</svg>