<?xml version="1.0" encoding="UTF-8"?>
<svg id="County_Labels" data-name="County Labels" xmlns="http://www.w3.org/2000/svg" viewBox="0 0 1000 1000">
  <polygon points="650.06 939.13 397.66 934.47 399.3 921.94 338.67 920.13 337.97 934.45 240.25 931.44 238.61 594.25 248.94 559.17 276.06 553.39 270.39 539.15 287.36 521.88 275.11 491.61 325.22 386.04 322.23 248.04 328.63 68.52 436.89 71.45 437.94 81.31 707.09 79.57 753.46 79.01 761.49 436.68 590.47 607.18 592.67 636.69 681.65 649.88 672.4 705.47 700.08 746.27 671.5 777.04 637.8 762.26 627.55 808 643.27 833.73 739.68 873.67 753.47 891.38 747.41 913.79 719.59 930.22 677.49 891.41 650.06 939.13" fill="#fde9bf" fill-rule="evenodd" stroke="#fff" stroke-miterlimit="10" stroke-width="12.79"/>
</svg>