<?xml version="1.0" encoding="utf-8"?>
<!-- Generator: Adobe Illustrator 27.4.1, SVG Export Plug-In . SVG Version: 6.00 Build 0)  -->
<svg version="1.1" xmlns="http://www.w3.org/2000/svg" xmlns:xlink="http://www.w3.org/1999/xlink" x="0px" y="0px"
	 viewBox="0 0 1000 1000" style="enable-background:new 0 0 1000 1000;" xml:space="preserve">
<style type="text/css">
	.st0{display:none;}
	.st1{display:inline;opacity:0.5;}
	.st2{fill:#F8DFA4;}
	.st3{display:inline;}
	.st4{fill:#4D4D4F;}
	.st5{fill:#0091B2;}
	.st6{fill-rule:evenodd;clip-rule:evenodd;fill:#FDE9BF;stroke:#FFFFFF;stroke-width:1.7508;stroke-miterlimit:10;}
	.st7{fill-rule:evenodd;clip-rule:evenodd;fill:#FDE9BF;stroke:#FFFFFF;stroke-width:15.5005;stroke-miterlimit:10;}
	.st8{fill:#FDE9BF;stroke:#FFFFFF;stroke-width:1.7508;stroke-miterlimit:10;}
</style>
<g id="VMS_Background_Elements" class="st0">
</g>
<g id="State">
	<polygon class="st7" points="796.4,687.6 800,775.5 627,777.8 624.8,962.8 564,965.2 502.2,948.9 490,967.7 462.5,966.1 
		172.9,747.8 221.5,725.5 232.6,700.1 152.5,599 134.9,551.5 149.7,514.8 180.7,402.1 218.2,431.7 203.8,502.1 218.4,532.8 
		269.8,530.4 342.4,460.4 336,393.9 261.7,398.4 228.1,375.4 203.4,216.3 238.4,181.2 257.5,184.8 282.6,217.4 287,267 255.9,302.9 
		277.3,341.1 308.8,347.4 367.6,317.7 371.9,277.4 341.5,197.1 366.8,144.3 327.9,77.1 335,29.2 390.3,18.3 407.8,46.3 398,123.4 
		417.2,129.7 448.5,111.6 555,71.2 586.7,92.5 623,89.4 626.6,62.2 796.5,58 792.9,341.3 775.8,343.3 740,396.9 756.4,427.7 
		739.5,466.2 771.1,485.7 724.2,573.1 733.1,618.9 764.6,632.7 766.8,671 	"/>
</g>
<g id="County_Labels">
</g>
</svg>
