<?xml version="1.0" encoding="UTF-8"?>
<svg id="County_Labels" data-name="County Labels" xmlns="http://www.w3.org/2000/svg" viewBox="0 0 1000 1000">
  <polygon points="178.94 690.61 199.29 707.29 216.03 680.06 249.7 679.51 277.23 653.53 362.47 694.04 370.67 622.98 353.73 594.86 357.77 578.48 369.82 569.07 425.93 578.87 442.95 566.55 497.22 450.76 484.25 448.1 444.87 503.34 352.75 486.99 333.83 471.66 320.15 423.59 372.03 389.39 377.99 356.62 348.93 336.46 296.73 352.91 254.93 345.76 176.66 265.31 175.25 225.52 214.88 187.16 283.12 267.83 306.29 277.41 342.85 270.44 338.85 244.91 248.87 197.27 235.41 166.9 254.46 143.83 289.57 134.02 390.39 136.72 391.69 359.96 426.49 332.43 521.5 342.43 522.84 135.5 698.47 135.27 719.27 73.09 753.14 74.81 755.13 118.19 793.29 118.44 793.36 182.48 874.65 181.52 875.59 200.72 924.51 200.17 921.3 234.34 887.01 255.34 860.84 292.6 877.18 337.9 817.46 451.55 826.49 485.52 818.67 492.71 751.79 482.16 731.82 492.34 737.74 562.54 710.99 601.91 708.42 625.36 720.16 646.48 696.29 685.09 668.16 725.15 624.82 751.95 626.43 764.69 648.82 778.57 635.42 794.34 573.37 811.48 567.42 795.97 546.59 791.29 528.28 812.1 545.65 826.03 515.2 849.13 493.53 835.98 483.7 848.87 459.87 834.34 445.16 855.1 447.21 896.87 397.91 901.14 384.68 878.68 331.99 895.78 284.88 946.1 246.33 950.27 234.68 895.22 277.98 873.97 317.4 832.96 327.26 778.24 300.03 777.25 260.27 754.5 272.39 794.71 260.83 832.45 222.52 810.4 188.52 831.52 125.25 816.29 111.62 774 124.29 721.32 178.94 690.61" fill="#fde9bf" fill-rule="evenodd" stroke="#fff" stroke-miterlimit="10" stroke-width="12.79"/>
</svg>