<?xml version="1.0" encoding="UTF-8"?>
<svg id="County_Labels" data-name="County Labels" xmlns="http://www.w3.org/2000/svg" viewBox="0 0 1000 1000">
  <polygon points="237.49 915.37 242.8 885.78 286.36 874.97 294.6 846.04 255.98 806.38 197.72 770.68 191.1 727.58 214.91 712.03 289.89 742.44 323.81 720.27 336.52 694.12 328.95 592.64 378.84 560.82 397.63 503.56 379.78 485.08 349.83 487.02 314.42 555.39 288.32 524.82 262.69 439.41 277.78 380.69 309.05 326.74 346.67 300.12 369.55 265.8 370.26 221 353.24 211.16 337.2 216.48 319.45 292.63 268.17 333.93 205.12 329.24 179.57 293.58 186.67 281.18 277.65 247.82 292.04 232.4 293.05 205.65 279.94 168.29 231.76 138.76 219.5 150.53 222.77 210.47 209.39 241.04 141.36 247.31 148.96 221.88 174.93 199.74 211.21 138.39 207.96 120.36 179.65 96.28 768 97.34 776.11 100.86 764.73 506.86 813.04 511.28 809.33 563.25 883.9 623.59 866.18 723.23 880.92 735.28 870.87 748.37 881.31 766.25 874.98 785.05 659.06 786.44 658.23 778.53 571.37 776.18 566.24 920.19 237.49 915.37" fill="#fde9bf" fill-rule="evenodd" stroke="#fff" stroke-miterlimit="10" stroke-width="12.79"/>
</svg>