<?xml version="1.0" encoding="UTF-8"?>
<svg id="County_Labels" data-name="County Labels" xmlns="http://www.w3.org/2000/svg" viewBox="0 0 1000 1000">
  <polygon points="83.72 823.17 90.31 805.24 170.49 770.22 200.69 727.02 181.89 686.41 101.49 609.21 143.22 523.11 129.41 463 196.93 411.16 215.66 410.77 247.52 441.08 284.79 431.78 310.29 382.43 292.94 337.83 312.32 330.45 330.87 283.55 363.71 285.21 407.7 258.73 442.06 257.27 488.5 235.42 522.89 195.2 554.76 186.06 683.89 193.77 775.95 227.83 798.71 232.86 817.1 258.14 853.18 266.06 880.87 286.54 875.87 313.75 915.42 344.89 922.57 824.77 744.39 824.7 83.72 823.17" fill="#fde9bf" fill-rule="evenodd" stroke="#fff" stroke-miterlimit="10" stroke-width="12.79"/>
</svg>