<?xml version="1.0" encoding="UTF-8"?>
<svg id="County_Labels" data-name="County Labels" xmlns="http://www.w3.org/2000/svg" viewBox="0 0 1000 1000">
  <polygon points="436.19 780.72 381.01 830.53 356.47 836.58 351.38 853.43 314.97 845.71 317.58 817.88 277.74 818.32 276.97 802.68 210.75 803.46 210.69 751.3 179.61 751.09 177.99 715.75 150.39 714.36 171.21 690.32 151.18 684.19 140.85 656.48 158.65 625.51 185.98 650.7 204.04 640.04 207.97 625.49 199.02 613.99 136.44 588.07 126.23 571.37 132.89 541.68 154.76 551.27 173.32 531.3 155.35 504.82 161.35 468.73 103.6 460.17 102.17 441.02 213.18 330.35 435.17 327.94 433.95 207.52 515.31 205.59 539.99 197.81 607.54 236.81 951.29 378.23 952.52 389.85 937.29 403.29 925.1 434.73 900.48 452.29 868.15 556.99 818.47 598.49 786.82 607.98 769.93 628.97 758.12 620.35 703.19 655.53 609.95 666.69 568.17 720.97 513.79 740.58 481.78 766.37 441.8 756.32 436.19 780.72" fill="#fde9bf" fill-rule="evenodd" stroke="#fff" stroke-miterlimit="10" stroke-width="11.4"/>
</svg>